HIERARCHY
ROOT Hips
{
	OFFSET 0.00000 0.00000 0.00000
	CHANNELS 6 Xposition Yposition Zposition Zrotation Yrotation Xrotation 
	JOINT LHipJoint
	{
		OFFSET 0 0 0
		CHANNELS 3 Zrotation Yrotation Xrotation
		JOINT LeftUpLeg
		{
			OFFSET 1.40252 -1.71424 0.59123
			CHANNELS 3 Zrotation Yrotation Xrotation
			JOINT LeftLeg
			{
				OFFSET 2.50071 -6.87065 0.00000
				CHANNELS 3 Zrotation Yrotation Xrotation
				JOINT LeftFoot
				{
					OFFSET 2.50834 -6.89162 0.00000
					CHANNELS 3 Zrotation Yrotation Xrotation
					JOINT LeftToeBase
					{
						OFFSET 0.21528 -0.59149 1.64448
						CHANNELS 3 Zrotation Yrotation Xrotation
						End Site
						{
							OFFSET 0.00000 -0.00000 0.87921
						}
					}
				}
			}
		}
	}
	JOINT RHipJoint
	{
		OFFSET 0 0 0
		CHANNELS 3 Zrotation Yrotation Xrotation
		JOINT RightUpLeg
		{
			OFFSET -1.53651 -1.71424 0.59123
			CHANNELS 3 Zrotation Yrotation Xrotation
			JOINT RightLeg
			{
				OFFSET -2.45783 -6.75285 0.00000
				CHANNELS 3 Zrotation Yrotation Xrotation
				JOINT RightFoot
				{
					OFFSET -2.51921 -6.92147 0.00000
					CHANNELS 3 Zrotation Yrotation Xrotation
					JOINT RightToeBase
					{
						OFFSET -0.21777 -0.59831 1.59676
						CHANNELS 3 Zrotation Yrotation Xrotation
						End Site
						{
							OFFSET -0.00000 -0.00000 0.85779
						}
					}
				}
			}
		}
	}
	JOINT LowerBack
	{
		OFFSET 0 0 0
		CHANNELS 3 Zrotation Yrotation Xrotation
		JOINT Spine
		{
			OFFSET 0.02212 2.07622 0.03776
			CHANNELS 3 Zrotation Yrotation Xrotation
			JOINT Spine1
			{
				OFFSET -0.00949 2.08009 -0.00123
				CHANNELS 3 Zrotation Yrotation Xrotation
				JOINT Neck
				{
					OFFSET 0 0 0
					CHANNELS 3 Zrotation Yrotation Xrotation
					JOINT Neck1
					{
						OFFSET 0.00288 1.67184 0.11155
						CHANNELS 3 Zrotation Yrotation Xrotation
						JOINT Head
						{
							OFFSET -0.02412 1.66997 -0.22040
							CHANNELS 3 Zrotation Yrotation Xrotation
							End Site
							{
								OFFSET -0.01026 1.69043 -0.08683
							}
						}
					}
				}
				JOINT LeftShoulder
				{
					OFFSET 0 0 0
					CHANNELS 3 Zrotation Yrotation Xrotation
					JOINT LeftArm
					{
						OFFSET 3.97941 0.74048 0.81462
						CHANNELS 3 Zrotation Yrotation Xrotation
						JOINT LeftForeArm
						{
							OFFSET 5.01834 -0.00000 -0.00000
							CHANNELS 3 Zrotation Yrotation Xrotation
							JOINT LeftHand
							{
								OFFSET 3.48690 -0.00000 0.00000
								CHANNELS 3 Zrotation Yrotation Xrotation
								JOINT LeftFingerBase
								{
									OFFSET 0 0 0
									CHANNELS 3 Zrotation Yrotation Xrotation
									JOINT LeftHandIndex1
									{
										OFFSET 0.76799 -0.00000 0.00000
										CHANNELS 3 Zrotation Yrotation Xrotation
										End Site
										{
											OFFSET 0.61917 -0.00000 0.00000
										}
									}
								}
								JOINT LThumb
								{
									OFFSET 0 0 0
									CHANNELS 3 Zrotation Yrotation Xrotation
									End Site
									{
										OFFSET 0.62863 -0.00000 0.62863
									}
								}
							}
						}
					}
				}
				JOINT RightShoulder
				{
					OFFSET 0 0 0
					CHANNELS 3 Zrotation Yrotation Xrotation
					JOINT RightArm
					{
						OFFSET -3.88702 1.02123 0.44091
						CHANNELS 3 Zrotation Yrotation Xrotation
						JOINT RightForeArm
						{
							OFFSET -4.70164 -0.00000 0.00000
							CHANNELS 3 Zrotation Yrotation Xrotation
							JOINT RightHand
							{
								OFFSET -3.49911 -0.00000 0.00000
								CHANNELS 3 Zrotation Yrotation Xrotation
								JOINT RightFingerBase
								{
									OFFSET 0 0 0
									CHANNELS 3 Zrotation Yrotation Xrotation
									JOINT RightHandIndex1
									{
										OFFSET -0.73933 -0.00000 0.00000
										CHANNELS 3 Zrotation Yrotation Xrotation
										End Site
										{
											OFFSET -0.59607 -0.00000 0.00000
										}
									}
								}
								JOINT RThumb
								{
									OFFSET 0 0 0
									CHANNELS 3 Zrotation Yrotation Xrotation
									End Site
									{
										OFFSET -0.60517 -0.00000 0.60517
									}
								}
							}
						}
					}
				}
			}
		}
	}
}
MOTION
Frames: 10
Frame Time: .0083333
10.8050 16.7757 1.2991 537.4210 20.5434 185.4840 0.0000 0.0000 0.0000 -29.9949 -8.6581 -34.5870 1.7836 8.4001 23.9360 -0.4046 -13.3865 12.7859 0.2458 -3.1904 -8.8092 0.0000 0.0000 0.0000 14.8874 9.0476 -21.0938 -7.3702 -15.6359 50.2611 -1.0757 8.5725 -18.6026 -0.0696 -1.7026 4.6844 4.5323 1.2937 -2.3705 -0.9973 1.6137 0.1002 -3.5078 0.8481 1.5871 -2.8482 -35.4578 -9.3350 0.0678 25.2464 6.4759 179.1730 11.7300 29.7340 -0.0000 0.0000 0.0000 -83.0070 17.1395 37.6506 85.5941 -59.9265 -56.1853 -0.0000 0.0000 -30.3095 21.5221 44.7165 15.5077 -7.1250 0.0000 -0.0000 -31.3420 74.8862 -22.5856 -0.0000 0.0000 0.0000 63.7036 4.7787 -13.3294 -54.7608 54.7440 -30.0206 0.0000 -0.0000 -41.6231 -14.2011 3.5914 -0.9082 7.1250 -0.0000 -0.0000 9.4057 -26.2539 4.3297
10.7272 16.8257 1.4624 537.8480 19.1291 186.1890 0.0000 0.0000 0.0000 -28.9494 -9.0509 -35.0873 1.7287 8.2766 23.5575 -0.6523 -15.0653 11.2018 1.3508 -7.3577 -20.7794 0.0000 0.0000 0.0000 15.6977 7.7443 -20.5939 -6.4559 -14.8561 46.7853 -1.3657 6.9030 -20.9002 -0.1148 -2.1848 6.0167 4.9923 1.4187 -2.4032 -0.7751 1.7596 0.2312 -3.5279 0.9309 1.7617 -2.6285 -35.9413 -9.6998 0.0352 25.0207 6.4404 179.0570 11.0740 29.8920 0.0000 -0.0000 0.0000 -83.4990 17.5383 37.0284 84.2378 -59.8742 -55.0119 -0.0000 0.0000 -29.9669 22.5022 44.4007 16.1640 -7.1250 0.0000 -0.0000 -29.3461 75.0106 -21.1648 0.0000 -0.0000 0.0000 61.6059 5.4476 -14.8916 -52.1939 53.8429 -27.9360 0.0000 -0.0000 -42.4183 -11.4446 3.6977 -0.7480 7.1250 -0.0000 -0.0000 11.4674 -26.1745 5.3341
10.6653 16.8761 1.6480 538.1370 17.9968 186.6970 0.0000 0.0000 0.0000 -27.5376 -9.7078 -35.4105 1.8776 8.6063 24.5714 -0.6645 -14.2863 6.2345 0.9830 -6.3110 -17.6896 0.0000 0.0000 0.0000 16.4454 7.3743 -19.5809 -5.5498 -13.9774 43.1471 -1.5546 4.8121 -22.5027 -0.0013 -0.2307 0.6339 4.7241 1.4701 -2.0095 -0.3618 1.8516 0.2740 -2.9557 0.9696 1.5709 -2.3664 -36.3729 -10.1185 -0.1150 25.0797 6.3908 179.0900 10.0560 30.1270 0.0000 -0.0000 0.0000 -84.2665 18.2798 35.9276 83.4839 -59.8390 -54.3600 -0.0000 0.0000 -29.9553 22.4502 44.6634 16.1960 -7.1250 0.0000 -0.0000 -30.0729 75.1971 -21.8243 0.0000 -0.0000 0.0000 59.1843 6.1921 -15.9567 -49.3270 52.7204 -25.6376 0.0000 -0.0000 -43.1900 -8.4040 4.0153 -0.5927 7.1250 -0.0000 -0.0000 13.7008 -25.8781 6.5245
10.6043 16.9261 1.8325 538.4100 16.9163 187.2330 0.0000 0.0000 0.0000 -25.9521 -10.5917 -36.3063 2.3489 9.5579 27.5567 -0.4427 -12.5107 -0.1440 1.0191 -6.4225 -18.0154 0.0000 0.0000 0.0000 17.1185 7.8521 -18.3054 -4.7045 -13.0431 39.5301 -1.6520 2.9516 -23.5363 -0.0007 0.1706 -0.4687 4.6049 1.5907 -1.7259 -0.0333 2.0272 0.3831 -2.5500 1.0572 1.5229 -1.8068 -37.0172 -10.8064 -0.4241 24.3664 6.1475 179.2590 7.8830 30.1840 0.0000 -0.0000 0.0000 -84.7514 18.9447 34.9545 83.0554 -59.8170 -53.9895 -0.0000 0.0000 -30.1580 21.9184 44.7600 15.8187 -7.1250 0.0000 -0.0000 -30.9738 75.0702 -22.4251 0.0000 -0.0000 0.0000 56.8148 6.9617 -17.0141 -46.4623 51.4651 -23.3771 0.0000 -0.0000 -43.7847 -5.6966 4.3787 -0.4364 7.1250 -0.0000 -0.0000 15.6531 -25.5300 7.6521
10.5416 16.9631 2.0116 538.1800 16.0267 187.7220 0.0000 0.0000 0.0000 -24.9221 -11.4584 -37.2941 3.0070 10.7063 31.2957 -0.0862 -9.3880 -4.9087 0.7780 -5.6315 -15.7188 0.0000 0.0000 0.0000 17.0054 8.8467 -18.1831 -4.2978 -12.5465 37.6938 -1.7361 1.2721 -24.5577 -0.0003 0.1072 -0.2946 4.5917 1.9600 -1.8043 -0.2433 2.5091 0.7011 -2.7306 1.3126 1.9417 -0.4394 -37.9794 -11.9216 -0.6103 22.7343 5.8492 179.0200 4.1980 30.1130 -0.0000 -0.0000 0.0000 -84.2985 19.1025 34.5864 82.3745 -59.7791 -53.4010 -0.0000 0.0000 -30.3939 21.4122 44.3522 15.3301 -7.1250 0.0000 -0.0000 -30.5676 74.5624 -21.8011 -0.0000 -0.0000 0.0000 55.2410 7.6543 -18.6577 -44.0237 50.2811 -21.4851 0.0000 -0.0000 -44.0512 -3.2608 4.8605 -0.2766 7.1250 -0.0000 -0.0000 17.3622 -25.0639 8.7609
10.4721 17.0077 2.1888 538.0680 14.9006 188.3010 0.0000 0.0000 0.0000 -23.9233 -11.7779 -38.4128 3.8694 11.9845 35.6772 0.1252 -6.5266 -7.2670 0.3605 -3.8570 -10.6747 0.0000 0.0000 0.0000 16.9266 9.2694 -18.4614 -3.9679 -12.1175 36.1491 -1.7535 -0.1620 -25.1232 -0.0041 -0.4125 1.1333 4.6379 2.1791 -1.8165 -0.3105 2.7981 0.8250 -2.8097 1.4638 2.1058 0.5922 -38.6544 -12.8182 -0.7401 22.2478 5.7379 178.5220 1.2010 30.3520 0.0000 0.0000 0.0000 -83.9441 19.6056 34.1147 81.7531 -59.7414 -52.8642 -0.0000 0.0000 -30.4922 21.0359 44.4816 15.0812 -7.1250 0.0000 -0.0000 -31.3396 74.5223 -22.3507 0.0000 0.0000 0.0000 53.7538 8.0941 -19.9483 -41.9864 49.2037 -19.9302 0.0000 -0.0000 -44.0293 -0.7473 5.2557 -0.0685 7.1250 -0.0000 -0.0000 19.1085 -24.6760 9.9238
10.3933 17.0562 2.3594 538.1700 13.5904 188.8190 0.0000 0.0000 0.0000 -22.6583 -12.3025 -39.2604 4.8592 13.2234 40.2107 0.2276 -4.2647 -8.5469 0.2562 -3.2565 -8.9936 0.0000 0.0000 0.0000 16.9844 9.0165 -18.7362 -3.6194 -11.6360 34.4560 -1.7091 -1.3178 -25.2200 -0.0335 -1.1808 3.2465 4.9290 2.3366 -1.7879 -0.2790 3.0022 0.8891 -2.9299 1.5732 2.1870 2.0763 -39.7067 -13.5004 -1.0649 21.3589 5.6548 178.4370 -3.2080 30.6540 0.0000 0.0000 0.0000 -83.5096 20.1998 33.6640 81.0173 -59.6929 -52.2288 -0.0000 0.0000 -30.4021 20.6303 44.9670 14.8988 -7.1250 0.0000 -0.0000 -33.0440 74.7411 -23.7733 0.0000 0.0000 0.0000 52.3574 8.3102 -21.0453 -40.2814 48.2358 -18.6489 0.0000 -0.0000 -43.8165 1.2929 5.4357 0.1225 7.1250 -0.0000 -0.0000 20.5242 -24.4871 10.8535
10.3144 17.1086 2.5234 538.3890 12.3823 189.4610 0.0000 0.0000 0.0000 -21.2714 -12.5400 -40.2419 5.9890 14.4177 44.9376 0.2374 -1.9570 -8.7294 0.0419 -1.3204 -3.6309 0.0000 0.0000 0.0000 17.0680 8.6905 -18.9374 -3.2138 -11.0334 32.3926 -1.6042 -2.5163 -24.9463 -0.0638 -1.6300 4.4840 5.3250 2.4991 -1.8906 -0.1936 3.2040 0.8800 -3.0487 1.6818 2.2710 3.5535 -40.7162 -14.1627 -1.4658 20.6276 5.5564 178.3000 -7.9480 31.0570 0.0000 -0.0000 0.0000 -83.2508 20.6838 32.9072 79.8053 -59.6036 -51.1829 -0.0000 0.0000 -29.9923 20.3428 45.1558 14.7286 -7.1250 0.0000 -0.0000 -33.8678 74.7740 -24.4188 0.0000 -0.0000 0.0000 51.1105 8.4790 -21.9339 -38.9542 47.4379 -17.6650 0.0000 -0.0000 -43.6439 2.6530 5.7482 0.2659 7.1250 -0.0000 -0.0000 21.4243 -24.1768 11.5679
10.2395 17.1601 2.6786 538.2530 11.2797 190.0470 0.0000 0.0000 0.0000 -20.3595 -12.4305 -41.1808 7.2085 15.5050 49.6586 0.2273 -0.1968 -8.9371 0.0169 0.8385 2.3047 0.0000 0.0000 0.0000 16.6987 8.4192 -19.0614 -2.8206 -10.3988 30.2780 -1.4505 -3.7019 -24.3453 -0.0746 -1.7616 4.8472 5.2671 2.6414 -2.0846 -0.1294 3.3839 0.8647 -2.9321 1.7726 2.3735 4.7983 -41.5923 -14.7369 -1.9380 19.7748 5.3702 178.0390 -12.9490 31.4260 0.0000 -0.0000 0.0000 -83.2129 21.0704 32.0396 78.5272 -59.4968 -50.0810 -0.0000 0.0000 -29.8458 20.8055 45.1097 15.0666 -7.1250 0.0000 -0.0000 -33.2097 74.9147 -24.0153 0.0000 -0.0000 0.0000 49.9549 8.5899 -22.7524 -37.9566 46.8116 -16.9339 0.0000 -0.0000 -43.4067 3.3836 6.2242 0.3673 7.1250 -0.0000 -0.0000 21.8505 -23.7227 12.0850
10.1638 17.2128 2.8213 538.4600 10.1191 190.8210 0.0000 0.0000 0.0000 -19.2015 -11.5748 -41.9973 8.3393 16.3632 53.7759 0.2361 1.0113 -9.6029 0.0498 1.4404 3.9613 0.0000 0.0000 0.0000 16.6954 8.1247 -19.4442 -2.5095 -9.8551 28.5089 -1.2914 -4.6648 -23.6060 -0.0767 -1.7871 4.9177 5.5267 2.8470 -2.5698 0.0287 3.6218 0.8382 -2.8762 1.9015 2.6470 6.0423 -42.5256 -15.2096 -2.4212 18.2739 5.1175 177.6470 -18.6380 31.7160 -0.0000 -0.0000 0.0000 -83.0459 21.3642 31.4256 77.5864 -59.4096 -49.2708 -0.0000 0.0000 -30.3497 21.5932 44.8427 15.5943 -7.1250 0.0000 -0.0000 -31.5799 75.0103 -22.8446 -0.0000 -0.0000 0.0000 48.9173 8.4956 -23.7414 -37.0896 46.2479 -16.3047 0.0000 -0.0000 -43.0301 3.3858 6.4721 0.3821 7.1250 -0.0000 -0.0000 21.8105 -23.4922 12.1860
